<svg xmlns="http://www.w3.org/2000/svg" viewBox="0 0 1200 512" width="1200" height="512" role="img" aria-label="YummyMods Team banner">
  <title>YummyMods! Team</title>
  <rect x="8" y="8" width="1184" height="496" rx="96" fill="#2A1835"/>
  <rect x="8" y="8" width="1184" height="496" rx="96" fill="none" stroke="#4A2E6B" stroke-width="8"/>
  <!-- icon, re-composed at left -->
  <g transform="translate(48,64) scale(0.75)">
    <ellipse cx="256" cy="412" rx="142" ry="28" fill="#170D22"/>
    <ellipse cx="256" cy="400" rx="150" ry="30" fill="#DCCBF5"/>
    <ellipse cx="256" cy="394" rx="150" ry="30" fill="#FFFFFF"/>
    <rect x="166" y="286" width="180" height="104" rx="20" fill="#FFD166"/>
    <rect x="166" y="346" width="180" height="44" rx="20" fill="#EBA93F"/>
    <rect x="166" y="346" width="180" height="24" fill="#EBA93F"/>
    <circle cx="222" cy="332" r="9" fill="#2A1835"/>
    <circle cx="290" cy="332" r="9" fill="#2A1835"/>
    <path d="M238 350 Q256 363 274 350" fill="none" stroke="#2A1835" stroke-width="6" stroke-linecap="round"/>
    <rect x="146" y="216" width="220" height="64" rx="32" fill="#FF7BAC"/>
    <circle cx="176" cy="280" r="13" fill="#FF7BAC"/>
    <circle cx="226" cy="288" r="16" fill="#FF7BAC"/>
    <circle cx="286" cy="288" r="16" fill="#FF7BAC"/>
    <circle cx="336" cy="280" r="13" fill="#FF7BAC"/>
    <rect x="162" y="228" width="100" height="16" rx="8" fill="#FF9DC0" opacity="0.8"/>
    <g>
      <rect x="192" y="244" width="18" height="7" rx="3.5" fill="#7BF1D3" transform="rotate(20 201 247)"/>
      <rect x="292" y="236" width="18" height="7" rx="3.5" fill="#7BF1D3" transform="rotate(-15 301 239)"/>
      <rect x="241" y="254" width="18" height="7" rx="3.5" fill="#FFF3E0" transform="rotate(10 250 257)"/>
      <rect x="321" y="258" width="18" height="7" rx="3.5" fill="#B388FF" transform="rotate(-25 330 261)"/>
      <rect x="167" y="258" width="18" height="7" rx="3.5" fill="#B388FF" transform="rotate(15 176 261)"/>
    </g>
    <path d="M256 172 Q260 142 284 130" fill="none" stroke="#7A4A2B" stroke-width="9" stroke-linecap="round"/>
    <ellipse cx="296" cy="130" rx="18" ry="9" fill="#7BF1D3" transform="rotate(-20 296 130)"/>
    <circle cx="256" cy="190" r="32" fill="#FF3355"/>
    <circle cx="245" cy="179" r="10" fill="#FFFFFF" opacity="0.7"/>
  </g>
  <!-- wordmark -->
  <text x="500" y="272" font-family="Trebuchet MS, Verdana, Arial, sans-serif" font-weight="bold" font-size="116" fill="#FFF3E0">YummyMods<tspan fill="#FF7BAC">!</tspan></text>
  <text x="504" y="330" font-family="Trebuchet MS, Verdana, Arial, sans-serif" font-size="34" letter-spacing="8" fill="#7BF1D3">TEAM</text>
  <text x="504" y="372" font-family="Trebuchet MS, Verdana, Arial, sans-serif" font-size="24" letter-spacing="3" fill="#B388FF">UNITY MONO MOD LOADER</text>
</svg>
